/* XPM */
static char * PICO_8_2_xpm[] = {
"128 128 16 1",
"0	c #000000", /* black */
"1	c #1D2B53", /* black */
"2	c #7E2553", /* dark purple */
"3	c #008751", /* dark green */
"4	c #AB5236", /* brown */
"5	c #5F574F", /* dark gray */
"6	c #C2C3C7", /* light gray */
"7	c #FFF1E8", /* white */
"8	c #FF004D", /* red */
"9	c #FFA300", /* orange */
"a	c #FFEC27", /* yellow */
"b	c #00E436", /* green */
"c	c #29ADFF", /* blue */
"d	c #83769C", /* indigo */
"e	c #FF77A8", /* pink */
"f	c #FFCCAA", /* peach */
"88888888888888888888888888888888888888888888888888888888888888888888888888888888888888888888888888888888888888888888888888888888",
"88888ffffff882222228888888888888888888888888888888888888888888888888888888888888888228228888ff88ff888222822888888822888888228888",
"88888f8888f882888828888888888888888888888888888888888888888888888888888888888888882288822888ffffff888222822888882282888888222888",
"88888ffffff882888828888888888888888888888888888888888888888888888888888888888888882288822888f8ff8f888222888888228882888888288888",
"88888888888882888828888888888888888888888888888888888888888888888888888888888888882288822888ffffff888888222888228882888822288888",
"88888f8f8f88828888288888888888888888888888888888888888888888888888888888888888888822888228888ffff8888228222888882282888222288888",
"888888f8f8f8822222288888888888888888888888888888888888888888888888888888888888888882282288888f88f8888228222888888822888222888888",
"88888888888888888888888888888888888888888888888888888888888888888888888888888888888888888888888888888888888888888888888888888888",
"55555555555555555555555555555555555555555555555555555555555555555555555555555555555555555555555555555555555555555555555555555555",
"55555555555555555555555555555555555555555555555555555555555555555555555555555555555555555555555555555555555555555555555555555555",
"55555550000000000000000000000000000000000000000000000000000000000000000005555557777777777770000000000000000000000000000005555555",
"55555550000000000000000000000000000000000000000000000000000000000000000005555557000000000071111111112222222222333333333305555555",
"55555550000000000000000000000000000000000000000000000000000000000000000005555557000000000071111111112222222222333333333305555555",
"55555550000000000000000000000000000000000000000000000000000000000000000005555557000000000071111111112222222222333333333305555555",
"55555550000000000000000000000000000000000000000000000000000000000000000005555557000000000071111111112222222222333333333305555555",
"55555550000000000000000000000000000000000000000000000000000000000000000005555557000000000071111111112222222222333333333305555555",
"55555550000000000000000000000000000000000000000000000000000000000000000005555557000000000071111111112222222222333333333305555555",
"55555550000000000000000000000000000000000000000000000000000000000000000005555557000000000071111111112222222222333333333305555555",
"55555550000000000000000000000000000000000000000000000000000000000000000005555557000000000071111111112222222222333333333305555555",
"55555550000000000000000000000000000000000000000000000000000000000000000005555557000000000071111111112222222222333333333305555555",
"55555550000000000000000000000000000000000000000000000000000000000000000005555557777777777775555555556666666666777777777705555555",
"55555550000000000000000000000000000000000000000000000000000000000000000005555550444444444455555555556666666666777777777705555555",
"55555550000000000000000000000000000000000000000000000000000000000000000005555550444444444455555555556666666666777777777705555555",
"55555550000000000000000000000000000000000000000000000000000000000000000005555550444444444455555555556666666666777777777705555555",
"55555550000000000000000000000000000000000000000000000000000000000000000005555550444444444455555555556666666666777777777705555555",
"55555550000000000000000000000000000000000000000000000000000000000000000005555550444444444455555555556666666666777777777705555555",
"55555550000000000000000000000000000000000000000000000000000000000000000005555550444444444455555555556666666666777777777705555555",
"55555550000000000000000000000000000000000000000000000000000000000000000005555550444444444455555555556666666666777777777705555555",
"55555550000000000000000000000000000000000000000000000000000000000000000005555550444444444455555555556666666666777777777705555555",
"5555555000000000000000000000000000000000000000000000000000000000000000000555555088888888889999999999aaaaaaaaaabbbbbbbbbb05555555",
"5555555000000000000000000000000000000000000000000000000000000000000000000555555088888888889999999999aaaaaaaaaabbbbbbbbbb05555555",
"5555555000000000000000000000000000000000000000000000000000000000000000000555555088888888889999999999aaaaaaaaaabbbbbbbbbb05555555",
"5555555000000000000000000000000000000000000000000000000000000000000000000555555088888888889999999999aaaaaaaaaabbbbbbbbbb05555555",
"5555555000000000000000000000000000000000000000000000000000000000000000000555555088888888889999999999aaaaaaaaaabbbbbbbbbb05555555",
"5555555000000000000000000000000000000000000000000000000000000000000000000555555088888888889999999999aaaaaaaaaabbbbbbbbbb05555555",
"5555555000000000000000000000000000000000000000000000000000000000000000000555555088888888889999999999aaaaaaaaaabbbbbbbbbb05555555",
"5555555000000000000000000000000000000000000000000000000000000000000000000555555088888888889999999999aaaaaaaaaabbbbbbbbbb05555555",
"5555555000000000000000000000000000000000000000000000000000000000000000000555555088888888889999999999aaaaaaaaaabbbbbbbbbb05555555",
"55555550000000000000000000000000000000000000000000000000000000000000000005555550ccccccccccddddddddddeeeeeeeeeeffffffffff05555555",
"55555550000000000000000000000000000000000000000000000000000000000000000005555550ccccccccccddddddddddeeeeeeeeeeffffffffff05555555",
"55555550000000000000000000000000000000000000000000000000000000000000000005555550ccccccccccddddddddddeeeeeeeeeeffffffffff05555555",
"55555550000000000000000000000000000000000000000000000000000000000000000005555550ccccccccccddddddddddeeeeeeeeeeffffffffff05555555",
"55555550000000000000000000000000000000000000000000000000000000000000000005555550ccccccccccddddddddddeeeeeeeeeeffffffffff05555555",
"55555550000000000000000000000000000000000000000000000000000000000000000005555550ccccccccccddddddddddeeeeeeeeeeffffffffff05555555",
"55555550000000000000000000000000000000000000000000000000000000000000000005555550ccccccccccddddddddddeeeeeeeeeeffffffffff05555555",
"55555550000000000000000000000000000000000000000000000000000000000000000005555550ccccccccccddddddddddeeeeeeeeeeffffffffff05555555",
"55555550000000000000000000000000000000000000000000000000000000000000000005555550ccccccccccddddddddddeeeeeeeeeeffffffffff05555555",
"55555550000000000000000000000000000000000000000000000000000000000000000005555550000000000000000000000000000000000000000005555555",
"55555550000000000000000000000000000000000000000000000000000000000000000005555555555555555555555555555555555555555555555555555555",
"55555550000000000000000000000000000000000000000000000000000000000000000005555555555555555555555555555555555555555555555555555555",
"55555550000000000000000000000000000000000000000000000000000000000000000005555555555555555555555555555555555555555555555555555555",
"55555550777777770000000077777777000000007777777700000000777777770000000005555556666666555556667655555555555555555555555555555555",
"55555550777777770000000077777777000000007777777700000000777777770000000005555556666666555555666555555555555555555555555555555555",
"5555555077777777000000007777777700000000777777770000000077777777000000000555555666666655555556dddddddddddddddddddddddd5555555555",
"555555507777777700000000777777770000000077777777000000007777777700000000055555566606665555555655555555555555555555555d5555555555",
"55555550777777770000000077777777000000007777777700000000777777770000000005555556666666555555576666666d6666666d666666655555555555",
"55555550777777770000000077777777000000007777777700000000777777770000000005555556666666555555555555555555555555555555555555555555",
"55555550777777770000000077777777000000007777777700000000777777770000000005555556666666555555555555555555555555555555555555555555",
"55555550777777770000000077777777000000007777777700000000777777770000000005555555555555555555555555555555555555555555555555555555",
"55555550000000000000000000000000000000000000000000000000000000000000000005555555555555555555555555555555555555555555555555555555",
"55555550000000000000000000000000000000000000000000000000000000000000000005555556665666555556667655555555555555555555555555555555",
"55555550000000000000000000000000000000000000000000000000000000000000000005555556555556555555666555555555555555555555555555555555",
"5555555000000000000000000000000000000000000000000000000000000000000000000555555555555555555556dddddddddddddddddddddddd5555555555",
"555555500000000000000000000000000000000000000000000000000000000000000000055555565555565555555655555555555555555555555d5555555555",
"55555550000000000000000000000000000000000000000000000000000000000000000005555556665666555555576666666d6666666d666666655555555555",
"55555550000000000000000000000000000000000000000000000000000000000000000005555555555555555555555555555555555555555555555555555555",
"55555550000000000000000000000000000000000000000000000000000000000000000005555555555555555555555555555555555555555555555555555555",
"55555550777777770000000000000000000000000000000000000000000000000000000005555555555555555555555555555555555555555555555555555555",
"55555550777777770000000000000000000000000000000000000000000000000000000005555555555555555555555555555555555555555555555555555555",
"55555550777777770000000000000000000000000000000000000000000000000000000005555550005550005550005550005550005550005550005550005555",
"555555507777777700000000000000000000000000000000000000000000000000000000055555011d05011d05011d05011d05011d05011d05011d05011d0555",
"55555550777777770000000000000000000000000000000000000000000000000000000005555501110501110501110501110501110501110501110501110555",
"55555550777777770000000000000000000000000000000000000000000000000000000005555501110501110501110501110501110501110501110501110555",
"55555550777777770000000000000000000000000000000000000000000000000000000005555550005550005550005550005550005550005550005550005555",
"55555550777777770000000000000000000000000000000000000000000000000000000005555555555555555555555555555555555555555555555555555555",
"55555550000000000000000000000000000000000000000000000000000000000000000005555555555555555555555555555555555555555555555555555555",
"55555555555555555555555555555555555555555555555555555555555555555555555555555555555555555555555555555555555555555555555555555555",
"55555555555555555555555555555555555555555555555555555555555555555555555555555555555555555555555555555555555555555555555555555555",
"55555555555555555555555555555555555555555555555555555555555555555555550000000055555555555555555555555555555555555555555555555555",
"55555555555555555555555557555555ddd5555d5d5d5d5555d5d55555555d555555550000000056666666666666555557777755555555555555555555555555",
"55555555555555555555555577755555ddd555555555555555d5d5d5555555d55555550000000056ddd6ddd6ddd6555577ddd775566666555666665556666655",
"55555555555555555555555777775555ddd5555d55555d5555d5d5d55555555d5555550000000056d6d6d6d666d6555577d7d77566dd666566ddd66566ddd665",
"55555555555555555555557777755555ddd555555555555555ddddd555ddddddd555550000000056d6d6d6d6ddd6555577d7d775666d66656666d665666dd665",
"555555555555555555555757775555ddddddd55d55555d55d5ddddd55d5ddddd5555557070707056d6d6d6d6d666555577ddd775666d666566d666656666d665",
"555555555555555555555755755555d55555d555555555555dddddd55d55ddd55555550000000056ddd6ddd6ddd655557777777566ddd66566ddd66566ddd665",
"555555555555555555555777555555ddddddd55d5d5d5d55555ddd555d555d555555557000000056666666666666555577777775666666656666666566666665",
"55555555555555555555555555555555555555555555555555555555555555555555555555555555555555555555555566666665ddddddd5ddddddd5ddddddd5",
"00000000000000077777777770000000000000000000000000000000000000000000000000000000000000000000000000000000000000000000000000000000",
"00000000000000070000000070000000000000007700070077700700777077700007700777070707770770007707770000000000000000000000000000000000",
"00000000000000070000000070000000707070707570757057507570575075500007570755070707550757075507550000000000000000000000000000060000",
"00000000000000070000000070000000000000007070707007007070070077000007070770070707700707057007700070007077707000700000000000060000",
"00000000000000070000000070000000000000007750707007007770070075000007750750070707500775005707500077077075507700700000000000006000",
"00000000000000070000000070000000000000007570575007007570070077700007570777057507770757077507770075757077007570700000000000000600",
"00000000707070077070707070700000000000005050050005005050050055500005050555005005550505055005550070507075007057700000000070707060",
"00000000000000070000000070000000000000000000000000000000000000000000000000000000000000000000000070007077707005700000000000000060",
"00000000000000077000000070700000000000000000000000000000000000000000000000000000000000000000000050005055505000500000000000000060",
"00000000000000077777777770000000000000000000055500000000000000000000000000000000000000000000000000000000000000000000700000000000",
"00000000700000000000000000000000000000000006661666700000000000000000000000000000000000000000000000000000007000000000007000000000",
"00000000000000000000000000000000000000000066661666600000000007770707077007070077077700007770707700777000000000000000000070700000",
"00666666666666666666666666666660000000000666661666760000000005750707075707070755057500007550707570755000007000000000000070700000",
"06666666c66666666666666666ddd666000000000666661666660000000000700777070707070570007000007700707070770000000000000000000070700000",
"6666666ccc666666666666666ddddd66607070706666661666666000707070700757077507070057007070707500707750750070007000000000000070700000",
"666666ccccc6666666666666dd7d7dd6600000006666661666666000000000700707075705770775007000007000707570777000000000000000000057700000",
"66666611c116666666666666ddd7ddd6600000006661116111666000000000500505050500550550005000005000505050555000007000000000000005500000",
"6666c6661666c66666666666dd7d7dd6600000006116666666116000000000000000000000000000000000000000000000000000000000000000000000000000",
"666cc6666666cc66666ddd661ddddd16600000001666666666661000000000000000000700070000000000000000000000000000000000000000000000000000",
"66cccc66666cccc666ddddd661ddd166600000006666666666666000000000000000007700770000000000000000000000000000000000000000000000000000",
"661cc1666661cc166dd777dd66111666600000006666666666666000000000000000006700670000000000000000000000000000000000000000000000000000",
"6661c6666666c1666dd7d7dd66666666600000006666666666666000070707070070700700070000000000000000000000000000000000000000000000000000",
"66661666c66616666dd777dd67676767670707006666666666666000000000000070700700070000000000000000000000000000000000000000000000000000",
"666666ccccc6667661ddddd166666666600000006666666666666000000000000067600707070000000000000000000000000000000000000000000000000000",
"6666661ccc166666661ddd1666666666600000006666666666666000000000000006000606060000000000000000000000000000000000000000000000000000",
"66666661c16666676661116666666666600000006666666666666000000000000000000000000000000000000000000000000000000000000000000000000000",
"d6666666166666666666666666666666d0000000d66666766666d00000aaa0a000a0a000aa00a00aaa0aaa0a0000000000000000000000000000000000000000",
"1d66666666666666766666666666666d100000001d666666666d100000a990a000a0a00a990a9a0a990a990a0000000000000000000000000000000000000000",
"01dddddddddddddddd7dddddddddddd10000000001dddd7dddd1000000a000a000a0a009a00a0a0a000a000a0000000000000000000000000000000000000000",
"0011111171111111111171111111111000000000001111111110000000aa00a0009a90009a0aaa0aa00aa00a0000000000000000000000000000000000000000",
"0000000000000000000000700000000000000000000000700000000000a900a0000a00000a0a9a0a900a90090000000000000000000000000000000000000000",
"0000000070000000000000007000000000000000000000000000000000a000aaa00a000aa90a0a0a000aaa0a0000000000000000000000000000000000000000",
"00000000000000000000000000700000000000000000007000000000009000999009000990090909000999090000000000000000000000000000000000000000",
"00000000000000000000000000000000000000000000000000000000000000000000000000000000000000000000000000000000000000000000000000000000",
"88888888888888888888888888888888888888888888888888888888888888888888888888888888888888888888888888888888888888888888888888888888",
"88888888888888888888888888888888888888888888888888888888888888888888888888888888888888888888888888888888888888888888888888888888",
"88888888888888888888888888888888888888888888888888888888888888888888888888888888888888888888888888888888888888888888888888888888",
"88888888888888888888888888888888888888888888888888888888888888888888888888888888888888888888888888888888888888888888888888888888",
"88888888888888881888888888888888888888888888888888888888888888888888888888888888888888888888888888888888888888888888888888888888",
"88888888888888817188888888888888888888888888888888888888888888888888888888888888888888888888888888888888888888888888888888888888",
"88888888888888817718888888888888888888888888888888888888888888888888888888888888888888888888888888888888888888888888888888888888"};
